<?xml version="1.0" encoding="utf-8"?>
<!-- Generator: Adobe Illustrator 24.1.0, SVG Export Plug-In . SVG Version: 6.00 Build 0)  -->
<svg version="1.1" id="Layer_1" xmlns="https://www.w3.org/2000/svg" xmlns:xlink="https://www.w3.org/1999/xlink" x="0px" y="0px"
	 viewBox="0 0 324.6 100.9" style="enable-background:new 0 0 324.6 100.9;" xml:space="preserve">
<style type="text/css">
	.st0{fill:#FFFFFF;}
</style>
<g>
	<g>
		<path d="M193,31.9c-1.7-3.5-5.4-3.9-7.6-0.7c-0.7,1.2-1.3,2.4-1.8,3.7c-0.9,2.1-2.7,2.9-4.7,1.8c-1-0.6-1.9-1.3-2.7-2.2
			c-2.4-2.7-2.5-6.2-2.8-9.5c0-0.5-0.1-1-0.1-1.5c-0.1-5.1,4.8-9.3,9.7-6.5c0.5,0.3,1.1,0.5,1.7,0.7c2,0.6,4.7-0.9,5-2.9
			c0.3-1.8,0.4-3.6,0.2-5.4c-0.4-3.4-4.1-7.2-7.6-7.6c-6-0.7-10.4,2.2-13.8,6.8c-5.5,7.4-5.8,15.8-3.8,24.3
			c1.1,4.9,2.8,9.8,7.3,12.8c7.2,4.9,15,6,19.9-2C194.4,40,195,36,193,31.9z M188.8,44c-2.5,2.9-5.8,3.6-9.6,2.6
			c-7.5-1.8-10.6-7.4-12.2-14.2c-0.6-2.5-0.8-5.2-1.2-7.8c0-5.7,2-11.3,5.6-15.8c2.1-2.9,5.4-4.7,9-4.8c1.5,0,3.2,1.9,4.3,3.3
			c1,1.5,1.8,3.1,2.3,4.8c0.2,0.8,0,1.7-0.6,2.4c-0.8,0.5-1.7,0.6-2.5,0.3c-3.7-1.7-7.2-1.6-10.1,1.4c-1.3,1.3-2.2,2.9-2.6,4.7
			c-0.6,5-0.5,10,2.8,14.3c2,2.6,4.4,4.6,8,4.3c1.7,0,3.2-1.1,3.8-2.7c0.5-1.4,1.1-2.7,1.9-3.9c0.4-0.7,1.1-1.1,1.9-1.2
			c0.5,0,1.3,0.8,1.5,1.4C192.4,36.8,191.5,41,188.8,44z"/>
		<path d="M80.1,4.4c-0.3-1.3-0.6-2.5-1.9-2.5c-1.1,0.1-2.1,0.7-2.7,1.6c-0.7,1.8-1.1,3.7-1.1,5.6c-0.2,3.2-0.1,6.4-0.1,10
			c-1.3-0.5-2.5-1-3.7-1.5c-2.5-1-5.3-0.6-6.7,1.2c-2.1,2.8-4.4,5.6-5.7,8.8C56,33,56.9,39.3,60.5,44c3.1,4.1,7.6,4.2,11.2,0.5
			c0.4-0.3,0.7-0.6,1.2-0.9c0.3,0.5,0.5,0.9,0.8,1.1c1.2,0.8,2.6,2,3.8,2c1-0.1,2-1.8,2.8-2.8c0.3-0.4,0.4-0.9,0.5-1.4
			c0.8-5.2,1.9-10.5,2.2-15.8C83.3,19.1,81.8,11.7,80.1,4.4z M77.3,44.2l-0.8,0.2c-0.5-0.7-0.9-1.4-1.2-2.1
			c-0.2-1.1-0.5-2.1-0.9-3.2c-0.5-0.6-1.2-1-2-1.1c-0.3-0.1-0.9,0.7-1.1,1.2c-0.4,1.1-0.9,2.1-1.4,3.2c-1.1,1.6-2.6,3.2-4.6,2.4
			c-1.8-0.7-3.2-2-4.1-3.6c-3.2-8.6-1.4-14.9,4.7-21.2c2.2-2.2,6.2-1.7,8.4,0.9c0.1,0.2,0.2,0.4,0.4,0.5c0.8,0.5,1.7,0.9,2.5,1.3
			c0.2-0.9,0.4-1.8,0.4-2.7c-0.2-4.2-0.6-8.4-0.8-12.6c0.1-0.8,0.2-1.5,0.5-2.2C81,18.4,81.4,31.4,77.3,44.2z"/>
		<path d="M28.2,36.7c-0.5-7.2-3.2-13.9-6.1-20.4C20.5,13,18.6,9.9,16.3,7c-1.3-1.7-3.6-2-5.3-0.7c-0.3,0.2-0.5,0.5-0.7,0.7
			c-7.7,9-11.4,19.3-10,31.2c0.5,3.1,1.4,6,2.8,8.8c0.8,1.2,2.1,1.9,3.5,2c0.9,0,2.3-1.4,2.6-2.4c0.8-3.1,1.5-6.3,2-9.5
			c0.5-2.7,1.1-5.2,3.6-7.7c0.3,1.5,0.5,2.4,0.6,3.3c0.2,2,0.4,4.1,0.6,6.2c0.2,3,1.4,5.8,3.4,8.1c2.5,2.8,7.6,3,8.5-1.3
			C28.4,42.7,28.5,39.7,28.2,36.7z M25.4,45.2c-0.9,2-2.5,2.2-4.1,0.8c-2.8-2.6-3.1-6-3.5-9.5c-0.1-2.1-0.4-4.1-0.8-6.1
			c-0.4-1.2-1.2-2.2-2.4-2.7c-1.5-0.7-2.5,0.6-3.3,1.8C9,32.9,9,37,8.3,41c-0.4,2.2-0.6,4.5-2.6,6.4c-1.9-2.1-3-4.7-3.2-7.5
			C1,28.4,3.8,18.2,11.3,9.3c2.3-2.7,3.4-2.7,5.4,0.2c3.5,5.2,6,11.1,7.5,17.2c0.8,3.2,0.6,6.7,0.9,10c0.2,1.9,0.5,3.8,0.7,5.7
			C25.9,43.4,25.8,44.4,25.4,45.2z"/>
		<path d="M51.7,23.3c-2.2-4.9-5.2-6.4-11-3.4c-1.1,0.7-2.2,1.6-3.2,2.5c-0.2-0.3-0.4-0.6-0.6-0.9c-0.6-1.5-1.7-2.4-3.2-1.7
			c-1.4,0.6-3.1,1-2.8,3.4s0,4.8,0.1,7.3c0.2,5.3,0,10.7,2.5,15.6c0.6,1.2,2.1,2.7,3.1,2.7s2.2-1.7,3.2-2.8c0.4-0.6,0.6-1.3,0.5-2
			c0.2-2.5,0-5,0.5-7.4c0.5-2.4,1.4-4.7,2.6-6.8c0.7-1.2,2-0.9,2.4,0.6c0.2,1.3,0.3,2.6,0.3,3.9c0,2-0.3,4-0.2,6
			c0.1,2.5,0.5,5,2.3,6.9c1.6,1.8,3.6,1.7,4.9-0.3c0.8-1.3,1.3-2.7,1.6-4.2C56,35.9,54.5,29.4,51.7,23.3z M52,43.2
			c-0.1,0.8-0.4,1.5-0.9,2.1c-0.6,1-1.4,1-1.8-0.1c-0.6-1.3-1-2.7-1.1-4.2c-0.2-3.2,0-6.3,0-9.5c0-2.6-1.1-3.9-3.7-4.5
			c-2-0.5-3,1-4,2.3c-1.7,2.2-2.1,4.9-2.2,7.6s-0.5,5.3-0.8,8c-0.2,0.7-0.6,1.3-1,1.9c-3.2-5-4.3-22.3-1.4-24.2
			c0,1.3,0.2,2.5,0.5,3.7c0.4,0.9,0.9,1.7,1.5,2.4c0.6-0.5,1.1-1.1,1.6-1.7c1.2-2.6,2.7-5,5.5-6.1c2.3-1,3.9-0.8,4.9,1.5
			c1.6,3.6,2.7,7.3,3.4,11.2C52.8,36.7,52.2,40,52,43.2z"/>
		<path d="M218.8,22.5c-0.1-1.5-0.4-3.5-2.6-3.8s-3.2,1.3-4.2,2.8c-0.2,0.2-0.3,0.5-0.4,0.7c-1,2.9-2,5.8-3,8.8
			c-0.6,1.8-1.1,5.6-3.1,3.8c-0.6-0.5-0.9-1.4-0.6-2.2c0.1-0.9,0.2-1.5,0.2-2.4c0.2-2.7-0.7-5.3-1.6-7.9c-0.5-1.1-1.4-1.9-2.6-2.2
			c-1.3,0-2.5,0.5-3.3,1.5c-2.2,2.6-2.2,6-2.1,9.3c0.1,5.2,0.7,10.4,4.5,14.5c1.4,1.6,3.1,2.5,5.1,1.6s4-1.9,6-2.9
			c0.1,0.7,0.2,1.3,0.4,1.9c0.2,0.8,0.5,1.6,0.9,2.3c1.4,2.4,3.4,2.5,4.9,0.2c0.8-1.2,1.4-2.6,1.6-4c0.4-2.1,0.6-4.2,0.6-6.4
			C219.4,32.8,219.2,27.7,218.8,22.5z M214.5,47c-0.2-0.9-0.5-1.6-0.6-2.3c-0.1-1.2-0.3-2.5-0.6-3.7c-0.2-0.7-0.8-1.3-1.5-1.6
			c-0.8,0-1.5,0.4-2.1,0.9c-0.9,0.8-1.6,2-2.5,2.8c-2.3,1.9-5.1,2.9-6.9-0.5c-3.2-5.8-3.4-12-1.4-18.2c0.4-0.8,0.8-1.5,1.4-2.2
			l0.7-0.1c0.5,1.5,0.9,3,1.2,4.5c0.2,2.3,0.2,4.7,0.1,7c-0.2,1.7,0.8,3.3,2.3,4c1.5,0.7,3.4,0.1,4.1-1.5c1-2,1.8-4,2.5-6
			c1.2-2.8,2.4-5.5,3.7-8.2c0.1-0.3,0.5-0.4,0.9-0.7C218.5,26.4,217.6,44.5,214.5,47z"/>
		<path d="M271.2,39.5c-0.2-4.7-0.7-9.4-0.7-14c0-6.9-0.7-13.8-2.1-20.6c-0.3-1-0.7-1.9-1.3-2.8c-1.1-1.7-3.5-2.8-5-1.8
			c-1.1,0.9-1.9,2.2-2.1,3.6c-0.5,4.9-0.8,9.9-1,14.9c-0.1,2.4-0.6,4.4-3.3,5c-0.6,0.2-1.2,0.5-1.6,1c-3.7,4-5.8,8.5-5,14.1
			s5.8,9.3,10.7,7.6c1.3-0.7,2.6-1.5,3.8-2.5l0.9,1.7c0.8,1.6,1.9,3,3.9,2.9c1.6,0,3-2.3,3-4.4C271.4,42.7,271.3,41.1,271.2,39.5z
			 M268.3,46l-0.8,0l-1.2-2.2c-1.6-2.9-3.4-3.1-5.8-0.8c-2.7,2.7-6.6,2-8.2-1.7c-2.3-5.2,0.6-12.8,5.7-15.2c3.2-1.5,3.3-1.9,3.4-5.5
			c0.2-5.2,0.6-10.3,1-15.4c0.1-0.8,1-1.4,1.5-2.2c0.8,0.8,2,1.5,2.2,2.4c0.8,3.6,1.3,7.3,1.6,11c0.5,6.5,0.6,13,0.9,19.5
			c0.1,2.3,0.5,4.5,0.5,6.8C269,43.8,268.7,44.9,268.3,46z"/>
		<path d="M131,35.7c-1.2-1.7-3.1-1.7-4.7-1.1c-2.2,0.8-4,2.4-6.8,2.2c-1,0.1-2-0.5-2.5-1.4c-0.4-0.6-0.3-1.4,0.3-1.9
			c0.2-0.2,0.5-0.3,0.8-0.3c1.6-0.2,3.2-0.2,4.8,0.1c3,0.4,6.7-2.1,6.3-4.7c-0.5-4-2.9-7.6-6.4-9.7c-1.1-0.7-2.4-1.1-3.7-0.9
			c-4,0.8-7.6,2.8-10.3,5.8c-4.3,4.9-4.6,10.4-1.5,15.9c2.6,4.6,6.3,8,10.2,8.3c7.1,0.2,10.9-2.3,13.8-6.5
			C132.4,39.7,132.2,37.4,131,35.7z M128.6,40.5c-2.7,3.5-6.2,6.1-10.8,5.2c-4.1-0.8-6.9-3.9-8.7-7.6c-2.5-5.1-1.2-11.8,6.1-15.8
			l0.5-0.3c5.2-3.1,8.5-1.9,10.7,3.9c0.5,1.4,0.7,2.7-0.4,3.8s-2.4,2.1-4,1.4c-2.3-1-4.3-0.1-6.3,0.9c-1.4,0.7-1.8,1.7-1.1,3
			c1.6,3,3.1,5,6.7,4.5c1.7-0.2,3.1-1.3,4.7-1.8c1-0.3,2.2-1.2,3-0.5S129.2,39.7,128.6,40.5z"/>
		<path d="M323.6,40.1c-0.9-2.5-2.1-5-2.9-7.5s-1.1-5.2-2.1-7.6c-1.9-4.6-4.6-6.4-9-5.9c-3.9,0.3-7.3,2.7-9,6.2
			c-2.4,4.6-3.4,9.7-2.9,14.8c0.6,5.3,5.4,8.5,10.6,7.5c3.6-0.7,5.8-3,7.4-6.5c0.6,1.2,1.3,2.3,2,3.4c0.8,1,1.7,1.8,2.7,2.5
			c2.1,1.4,4.1,0.4,4.2-2.1C324.6,43.4,324.2,41.7,323.6,40.1z M321.8,45c-0.5-0.2-1.2-0.2-1.4-0.5c-1.2-2-2.1-4-3.3-6
			c-0.5-0.7-1.2-1.3-1.8-1.8c-0.5,0.6-0.9,1.3-1.3,2c-1.1,3.3-2.6,5.9-6.4,6.9c-4.6,1.2-7.4-2.3-7.8-5.6c-0.1-0.6-0.1-1.2-0.2-1.8
			c0.4-4.7,1.3-9.2,4.1-13.2c1.7-2.5,4.6-3.9,7.7-3.8c2,0,3.8,1.8,4.6,3.7c1.1,2.7,1.6,5.7,2.6,8.5c0.7,2.2,1.7,4.2,2.5,6.3
			c0.5,1.2,0.9,2.4,1.3,3.7C322.4,43.9,322,44.4,321.8,45z"/>
		<path d="M246.7,40.7c-1.5-4.9-3.4-9.8-4.9-14.7c-0.4-1.8-1.5-3.4-3.1-4.2c-4.7-2.4-7.4-3.6-11.9,1.8c-1.6,2.1-2.8,4.5-3.5,7.1
			c-1.7,5.8-2,11.5,3,16.1c2.1,1.9,4.7,3,7.4,1.6c1.9-1,3.4-2.7,5.5-4.3c0.2,0.5,0.6,1,1,1.3c1.3,1,2.7,1.8,4.2,2.4
			c1,0.5,2.2,0.1,2.7-0.9c0.2-0.3,0.2-0.7,0.2-1.1C247.4,44.1,247.2,42.4,246.7,40.7z M244.3,45.3c-0.7,0.3-1.6-0.5-2.1-1
			c-1-0.9-1.8-2.1-2.8-3c-1.5-1.5-2.7-1.2-3.4,0.8c-0.9,2.7-2.9,4.5-5.1,4.6s-4.9-2.2-5.7-4.8c-0.3-1.1-0.5-2.1-0.7-3.2
			c0.3-4.7,1-8.9,3.5-12.6s5.6-5,8.8-2.9c1.3,1,2.2,2.4,2.7,4c1.8,4.8,3.4,9.6,5,14.5c0.2,0.4,0.3,0.9,0.3,1.4
			C244.8,43.8,245.1,45,244.3,45.3z"/>
		<path d="M294.6,21.1c-4-1.1-7.8-0.9-11.3,1.9c-0.6-1.1-1.2-2.1-1.9-3.1c-1-1.3-2.5-2.5-4-1.6c-1,0.8-1.6,2.1-1.6,3.4
			c0.1,4.2,0.5,8.3,1,12.5c0.2,2.7,0.7,5.5,1.5,8.1c0.7,1.6,1.7,3,3,4.1c1,1,2.3,0.8,2.6-0.8c0.6-3.2,1.3-6.4,1.6-9.6
			c0.3-3.5,1-4.4,4.5-4.9c1.8-0.2,3.5-0.6,5.2-1.2c2-0.7,3.3-2.5,3.3-4.6C298.3,23.3,296.9,21.7,294.6,21.1z M294.7,26.9
			c-1.5,0.8-3.1,1.4-4.7,1.8c-0.6,0.1-1.2,0.2-1.9,0.2c-3.1,0.2-4.8,2.1-5.1,5.1s-0.7,5.9-1,8.9h-0.9c-1.7-2.4-1.8-5.3-2.1-8
			c-0.4-3.1-0.3-6.3-0.4-9.5c0-0.7-0.4-1.5-0.5-2.2c0-0.9,0-1.8,0.1-2.8c2.1,1.1,2.5,2.6,3,4.2c0.3,0.8,0.8,1.6,1.3,2.3
			c0.7-0.4,1.4-0.9,2-1.4c2.5-2.7,6.4-3.6,9.8-2.3C296.2,24.1,296.5,25.7,294.7,26.9L294.7,26.9z"/>
		<path d="M105.8,24c-0.5-1.4-1.4-2.6-2.7-3.3c-2.4-1.6-4.8,0-7.1,0.7c-1.3,0.4-1.9,0.4-2.5-1c-0.8-1.8-3.6-3-5-2.6
			c-1.8,0.5-2.3,2-2.2,3.7c0.4,4.8,0.5,9.5,1.2,14.3c0.5,3.3,1.3,6.6,2.4,9.8c0.7,2.3,2.8,2.4,4.2,0.4c1.7-2.2,1.6-4.7,1.3-7.3
			c-0.2-1.6-0.3-3.3-0.2-5c0.2-2.9,1.9-4.6,4.7-5.1c1.4-0.3,2.8-0.8,3.9-1.6C104.8,26.2,106,24.7,105.8,24z M102.6,24.5
			c-1.3,0.8-2.7,1.9-4.1,2.2c-3.9,0.7-5.2,3.1-5.6,6.6c-0.1,1.6-0.1,3.1,0.1,4.7c0,2-0.1,4-0.2,6h-0.8c-2.5-3-4-22-1.9-24
			c1.6,0.8,1.5,2,1.3,3.5c0,0.9,0.2,1.7,0.5,2.5c0.8-0.3,1.7-0.5,2.5-0.9c2.5-1,4.9-2.1,7.4-3c0.3-0.1,1.1,0.5,1.4,0.9
			C103.1,23.6,102.9,24.1,102.6,24.5L102.6,24.5z"/>
		<path d="M158,41.6c-0.8-2.6-1.4-5.3-2.4-7.8c-1.2-3.3-2.2-6.8-4.1-9.6c-4.2-6-9.5-7.2-14.4-0.3c-3.6,5.1-4.3,10.9-2.9,16.8
			c0.9,3.9,3.6,6.2,7.6,7.1c3.3,1,6.8-0.6,8.4-3.6c0,0,0.1-0.1,0.4-0.2c0.7,0.6,1.4,1.2,2.2,1.6c1.2,0.5,2.9,1.3,3.8,0.8
			s1.1-2.3,1.6-3.5C158.1,42.5,158.1,42,158,41.6z M153.2,43.5c-0.9-1-1.4-2.5-2.1-3.6c-0.5-0.6-1.1-1.2-1.7-1.8
			c-0.4,0.6-0.6,1.2-0.8,1.8c-0.3,2.9-1.7,5.1-4,5.7c-2.9,0.7-5.8-0.2-7.2-2.8c-1.2-2-1.9-4.3-1.8-6.7c0.2-0.1-0.1-0.2,0.1-0.2
			c0.2-5.1,1.6-9.8,5.5-13.4c3.2-2.9,7.4-1.6,8.9,2.5c1.3,3.6,3.2,7,4.5,10.6c0.8,2.2,1.2,4.5,1.3,6.8
			C155.9,44.3,154.3,44.8,153.2,43.5L153.2,43.5z"/>
		<path d="M71.5,29.1c-0.4-1.5-1.9-2.4-3.4-2.1c-0.6,0.1-1.1,0.5-1.5,0.9c-1,1.3-2.6,2.8-2.5,4.8c0.1,1.5,1.4,2.7,2.4,3.5
			c0.9,0.4,1.9,0.3,2.8-0.3C71.3,34.3,72.2,31.6,71.5,29.1z M68.2,33.8c-0.4,0.2-0.8,0-1-0.3c-0.6-1.4-0.1-2.9,1.1-3.8
			c0.4-0.1,0.8,0,1,0.3C69.9,31.4,69.4,33,68.2,33.8z"/>
		<path d="M14.2,16c-1.5,0-3.9,2.5-4,4s2.6,4,4.2,4c1.7,0,3-1.3,3-3c0-0.1,0-0.2,0-0.3C17.5,17.8,16.2,15.9,14.2,16z M14.2,21.6
			c-0.5,0.2-1.2-0.7-1.2-0.7c-0.2-1,0.3-2.1,1.3-2.5c0.4-0.1,0.8,0.1,1,0.5C15.6,19.9,15.2,21.1,14.2,21.6L14.2,21.6z"/>
		<path d="M260.6,30.7c-2.7-0.1-4.8,2.1-4.8,5c0,2,1.1,3.5,2.7,3.5c2.4,0,4.8-2.7,4.8-5.3C263.3,32,262.3,30.7,260.6,30.7z
			 M259,36.6c-0.4,0-0.8-0.2-0.9-0.6c-0.2-1.3,0.5-2.5,1.7-2.9c0.5,0,0.9,0.2,1,0.7C261,35,260.2,36.2,259,36.6z"/>
		<path d="M121.8,23.9c-1.9-1.3-3.9-0.8-5.6,0.2c-0.9,0.5-1.4,1.3-1.6,2.3c0.2,1,0.8,2,1.7,2.6c1,0.8,2.2,1.2,3.5,1.1
			c1.5-0.2,2.8-1.1,3.7-2.3C124.2,26.4,123.2,24.8,121.8,23.9z M118.5,28c-1,0-1.7-0.8-1.7-1.4c0.1-1.1,1.9-1.1,2.9-1.4h0.1
			c0.4,0,1.4,0.3,1.4,0.9C121.2,27.1,119.7,28,118.5,28z"/>
		<path d="M310.9,29c-0.9-1.1-3.3-0.9-4,0c-1.5,1.9-2.5,2.5-2.9,6.1c-0.2,1.4-0.1,2.8,1.2,3.6c1.3,0.8,2.9,0.6,4-0.4
			c1.9-1.6,3.5-3.7,3.1-6.3C312.1,30.8,311.6,29.8,310.9,29z M306.7,36c-1.1-1.3,0.2-5.2,2.4-5C311.6,31.1,308.2,37.7,306.7,36
			L306.7,36z"/>
		<path d="M236.9,32.4c-0.3-1.1-1-2.1-2-2.7c-0.8-0.3-1.7-0.2-2.4,0.3c-1.3,1.7-2.3,3.6-3,5.6c-0.3,1.3-0.1,2.7,0.5,3.9
			c0.8,1.8,2.3,1.9,3.6,0.4C235.6,37.8,237.5,35.3,236.9,32.4z M232.5,37.6c-0.4,0.1-0.8,0-1-0.4c-0.5-1.7,0.2-3.6,1.8-4.4
			c0.3-0.1,0.7,0,0.8,0.3C234.7,34.8,234,36.7,232.5,37.6z"/>
		<path d="M147.4,31.5c-0.4-2.8-2.1-3.7-4.7-2.8c-2.2,0.7-2.7,2.4-2.9,4.3c-0.2,2.2,0.3,4.3,2.4,5.6c0.4,0.2,0.8,0.3,1.2,0.3
			c2.5,0.1,4.1-2,4.1-5.7C147.5,32.7,147.5,32.1,147.4,31.5z M144.5,35.7c-0.3,0.5-0.9,0.8-1.5,0.7c-0.4-0.1-0.9-0.8-1-1.3
			c-0.5-2.8,1.5-4.9,2.6-3.6C146,33.1,145,34.1,144.5,35.7z"/>
	</g>
	<g>
		<path d="M28.9,78c-0.6,0-1.2,0-1.8-0.1c-0.5-0.1-1-0.3-1.4-0.4c-2.3-0.5-3.7-3.2-3.7-4.9c0-1,0.7-5.7,3.2-8.3
			c0.7-0.7,3.6-2.9,5.5-3.1c2.1-0.3,4.7-1,7.7,1.2c1.4,1.8,1.3,3.8,0.6,5.8c-0.3,0.8-0.8,1.5-1.4,2.1c-0.3,0.4-0.9,0.7-1.5,0.5
			c-0.6-0.2-1.1-0.5-1.7-0.7c-0.6-0.3-0.9-0.3-1.2,0.2c-0.1,0.1-0.1,0.4-0.1,0.6c-0.1,1.5,4.2,3,5.3,3.2c2.1,0.8,2.7,2,3.3,3.2
			c1,2,0.6,7.6,0.4,8.7c-0.3,1.6-1,3-1.8,4.4c-0.4,0.8-1.1,1.3-1.8,1.8c-0.6,0.5-1.3,0.9-2.1,1c-1.7,0.2-3.4,0.1-4.9-0.8
			c-1-0.6-2-1-2.9-1.6c-1.8-1.2-3.3-2.7-4.6-4.6c-0.5-0.8-0.9-1.6-0.7-2.5c0.1-0.5,0.3-1,0.5-1.3c1.8-2.3,4.4-2.7,6.8-1.2
			c0.7,0.5,1.4,0.9,2.1,1.3c1.7,1,1.4-0.6,1.4-0.8c-0.3-1-0.6-2-1.3-2.7c-0.5-0.4-1.2-0.6-1.8-0.8C30.4,78.1,29.7,78.1,28.9,78
			C28.9,78.1,28.9,78.1,28.9,78z M37.3,64.6c-0.3-0.8-2.8-1.3-3.6-1.3c-1.8,0.1-3.3-0.3-4.8,1c-0.8,0.7-1.8,1.2-2.5,2.1
			c-0.5,0.6-2.1,2.1-2.2,6.2c0,0.8,0.4,3.1,2.5,3.2c0.9,0.1,1.8,0.1,3.2,0.2c0.5,0.1,1.4,0.2,2.3,0.5c0.7,0.3,1.5,0.6,2,1.2
			c1.1,1.1,1.9,2.5,2.4,4.1c0.3,1-0.1,1.8-0.6,2.5c-0.5,0.7-1.3,0.6-2,0.5c-1.4-0.3-2.6-1.1-3.8-1.9c-1.1-0.7-2.2-0.9-3.3-0.2
			c-1.3,0.8-1.5,1.9-0.6,2.9c0.6,0.7,1.3,1.4,1.9,2.1c1.7,1.6,3.6,2.8,5.7,3.4c0.7,0.2,1.5,0.4,2.3-0.1c1.1-0.6,1.8-1.5,2.5-2.6
			c1-1.6,1.4-3.4,1.5-5.3c0.1-1.2,0-2.4-0.2-3.5c-0.4-3.2-3.5-4.2-4.6-4.4c-1.1-0.1-2-0.6-2.8-1.3c-0.9-0.8-1.5-1.9-1.7-3.1
			c-0.2-0.8,0.2-2,0.9-2.5c0.9-0.6,1.9-0.8,2.9-0.3c0.3,0.2,0.7,0.4,1,0.4C37.9,68.4,37.7,65.6,37.3,64.6z"/>
		<path d="M169.1,90.3c-1.1,2.5-2.1,2.5-3.3,2.9c-1.1,0.4-2.6,0.1-3.6-0.6c-1.6-1.1-2.8-2-3.5-3.8c-0.7-1.8-1-3.7-1.2-5.6
			c-0.2-2.3-0.1-4.6,0.2-7c0.2-1.6,0.2-3.2,0.4-4.8c0.3-1.9,0.6-3.7,1-5.5c0-0.2,0.1-0.4,0.2-0.6c0.1-0.6,0.8-3.1,4-2.3
			c1.6,0.6,2.7,1.8,2.9,3.6c0.1,0.8,0.2,1.7,0.3,2.5c0.3-0.8,0.4-4.9,2.4-5.7c0.6-0.6,2.9-0.9,3.6-0.5c0.5,0.3,0.8,0.8,0.9,1.3
			c0.5,1.8,1,3.5,1.4,5.3c0.3,1.3,0.4,2.6,0.5,4c0.2,2.4,0.4,4.7,0.5,7.1c0.1,2-0.5,9.5-0.7,10.3c-0.4,1.4-1.9,2.8-3.9,2.3
			C170.4,93,169.7,90.9,169.1,90.3z M172.1,90.7c1.5,0.6,2-6.2,1.3-12c-0.1-1.5-0.2-2.9-0.3-4.4c-0.1-2.3-0.4-5.6-0.8-7.9
			c-0.3-1.9-1.6-1.8-2.2-1.3c-1.2,0.9-1,2.6-1.2,4.2c-0.2,1.3-0.3,2.6-0.2,3.9c0,2.6,0,5.2-0.4,7.7c-0.2,1.3-0.6,2.5-1.3,3.7
			c-0.3,0.5-1.3,0.8-1.6,0.5c-0.8-0.8-1.4-1.7-1.6-2.8c-0.3-1.4-0.5-2.7-0.4-4.1c0.1-1,0.2-2,0.3-2.9c0.2-1.7,0.5-3.4,0.6-5.1
			c0.1-1.1-0.1-2.2-0.2-3.2c-0.1-0.4-0.3-1-0.7-1.2c-0.8-0.7-2.1-0.8-2.3,0.7c-0.1,1-0.4,1.9-0.5,2.9c-0.4,3.1-0.6,6.2-0.8,9.3
			c-0.2,2.7,0.1,5.4,0.7,8.1c0.4,1.9,1.3,2.9,2.8,4.1c2,1.1,4.5-0.5,4.9-4.4c0-0.1,0.1-0.3,0.2-0.4c1.1-0.7,2.3-0.2,2.5,1.1
			C171,87.9,171.3,90.4,172.1,90.7z M165.6,80.5c0.1,0.1,0.3-0.3,0.3-0.4c0.6-1.1,0.1-5.2,0-5.2C165.8,76.4,164.6,79.3,165.6,80.5z"
			/>
		<path d="M110.7,62.8c-0.6-1-1.2-1.1-2-1.9c-1.6-1.5-3.6-2-4.5-2.1c-1.2,0-2.2,0.4-3.2,1.2c-1.2,1-1.9,1.5-2.3,3.1
			c-1,3.5-0.9,5.9-0.9,7c0,1.1,0.2,1.2,0.3,2.3c0.1,1.3,0.7,6.1,0.7,7.1c0.1,2,1.1,9.2,1.3,10.7c0.3,2.1,4,4.3,5.7,1
			c0.5-1.1,0.1-3.3-0.1-4.5c-0.4-2-0.6-4-0.5-6.1c0-0.6,0.2-0.8,0.7-1c0.3-0.1,0.6-0.3,0.9-0.5c1-1,1.5-2.2,1.3-3.6
			c-0.1-1.1-0.7-1.9-1.8-2.1c-0.6-0.1-1.3-0.1-1.9-0.1c-0.7,0-0.8,0-0.8-0.7c0-0.6,0-1.1,0-1.7c0-0.9,0-0.8,0.2-1.7
			c0.3-1.8,1.8-0.2,1.8-0.2c0.7,0.9,1.3,1.8,2.6,1.8c0.1,0,3,0.4,3.6-3.2C111.9,65.9,111.6,64.2,110.7,62.8z M107.5,68.3
			c-0.6-0.1-1.9-2.5-3.8-2.3c-2,0.3-2.3,2.4-2.3,3c0,1.6-0.2,3,0,3.6c0.2,0.6,0.4,2.6,1.5,3c0.7,0.2,1.4-0.1,2.1-0.3
			c0.7-0.1,0.8-0.1,0.7,0.6c-0.2,0.9-0.7,1.6-1.7,1.8c-0.9,0.2-1,0.3-1.1,1.3c-0.2,1.5-0.1,3,0,4.5c0.1,1.7,0.5,3.3,0.9,5
			c0.1,0.5,0.2,1,0.2,1.6c0,0.4-0.2,0.9-0.7,0.9c-1.8-0.2-1.8-4.3-1.9-5.9c-0.1-1.3-0.1-2.7-0.2-4.1c-0.2-1.5-0.4-3-0.5-4.4
			c-0.1-1.3-0.2-2.6-0.3-3.8c-0.1-0.8-0.1-0.6-0.2-1.4c-0.2-1.5-0.6-4.4,0.9-7.5c0.8-1.7,1.6-2,3.2-2.6c1.4-0.5,3.5,0.9,4.3,2.2
			c0.8,1.3,1,2,0.8,3.5C109.2,67.7,108.9,68.7,107.5,68.3z"/>
		<path d="M147.8,79.3c-0.2-1.9-0.4-3.8-0.5-5.7c-0.1-1.8,0.1-12.8-1-14.4c-0.8-1.2-2.5-2.3-3.8-1.6c-1.5,0.7-2.3,1.9-2.4,3.5
			c-0.2,1.7-0.3,3.4-0.3,5.2c0,1.7,0.1,3.4,0.1,5.2c0,1.7,0,3.3,0,5c0,0.3-0.1,0.4-0.5,0.4c-1-0.1-2,0.1-2.9,0.6
			c-1.9,0.9-3.3,2.2-4.4,3.9c-0.8,1.4-1.3,2.7-1.3,4.5c0.1,1.6,0.7,3.1,1.7,4.5c0.8,1,1.7,1.8,3,2.3c1.3,0.5,2.7,0.2,3.9-0.4
			c0.8-0.4,1.5-0.9,2.3-1.4c0.1,0.1,0.2,0.3,0.2,0.4c0.6,1.6,2.1,2.3,3.5,1.8c2.6-1,2.8-3.7,2.9-4.9C148.3,86.9,148,81.2,147.8,79.3
			z M145.6,89.9c-0.2,0.5-0.5,0.8-1,0.8c-0.3,0-0.6-0.4-0.7-0.6c-0.3-0.7-0.5-1.5-0.7-2.2c-0.2-0.6-0.5-1-1.1-1
			c-1.1,0-2.3,1.8-2.8,2.5c-0.9,1.4-3,1.4-3.6,1.1c-2.6-1.5-2.4-4-2.4-4.7c0-0.6,0.1-1.3,0.4-1.8c0.5-1.3,1.3-2.5,2.5-3.4
			c1-0.7,2-1.5,3.3-1.6c0.3,0,0.4,0,0.6,0.3c0.2,0.3,0.3,0.7,0.6,0.9c0.3,0.2,0.7,0.4,1.1,0.1c0.7-0.5,0.6-1,0.6-2.1
			c0-0.5-0.1-3.4-0.2-5.6c0-1.5-0.2-4.1-0.2-5.7c0-1.6-0.1-3.8,0.3-5.4c0.2-0.6,3.2-3.8,2.7,3.4c-0.2,2.6,0.3,10,0.4,12.1
			c0.2,3,0.5,6,0.7,9.1C146,87.3,146.1,88.6,145.6,89.9z"/>
		<path d="M98.6,85.3c0-2,0-3.9-0.6-5.8c-0.3-1.1-0.7-2.2-1.2-3.2c-0.8-1.5-3.5-2.6-5.3-2.3c-0.1,0-0.1,0-0.2,0.1
			c-0.6,0.1-1.2,0.2-1.8,0.4c-0.5,0.2-1.1,0.3-1.6,0.6c-0.4,0.2-0.7,0.3-1.2,0c-1.4-1-4.1-0.8-4.6,0.8c-0.6,1.6-0.4,5.2-0.4,6.9
			c0,1,0,1.9,0.1,2.9c0.1,1.3,0.3,2.6,0.5,3.9c0.2,1.9,2.2,3.5,4.1,3.3c0.3,0,0.8-0.2,1-0.5c0.7-1.1,1.3-2.3,1.4-3.6
			c0.1-1.1,0-2.2-0.1-3.3c0-0.9,0.1-1.7,0.6-2.5c0.2-0.3,0.5-0.6,0.8-1c0.1,0.3,0.1,0.4,0.2,0.5c0.1,0.6,0.1,1.1,0.1,1.7
			c0.2,2,0.5,3.9,1.2,5.8c0.2,0.7,0.4,1.4,1,1.9c0.9,0.9,2.3,1.2,3.1,0.5c1-0.9,1.9-2,2.4-3.3C98.4,88,98.6,86.7,98.6,85.3z
			 M95.7,89.5c-0.1,0.6-1.2,1.1-1.5,0.9c-0.8-0.3-0.9-2-1.1-2.8c-0.3-1.6-0.4-3.1-0.6-4.7c-0.1-1-0.3-2-0.9-2.8
			c-0.4-0.6-1.9-0.9-2.6-0.4c-1,0.8-1.9,1.7-2.4,3c-0.4,1-0.3,2-0.3,3c0,1.1,0.2,2.4,0.1,3.6c-0.1,0.9-0.9,1.4-1.4,1.3
			c-0.5,0-0.5-0.9-0.5-1.4c-0.2-2.2-0.4-4.3-0.6-6.5c-0.1-1.3-0.2-2.6-0.2-3.9c0-0.4,0-0.8,0.1-1.2c0.1-0.5,0.6-0.9,1.1-0.6
			c0.3,0.2,0.5,0.8,0.4,1.1c-0.1,0.6-0.3,1.5,0.2,1.8c0.4,0.2,1.2-0.1,1.4-0.5c0.6-1.7,1.7-2.7,3.5-3c0.9-0.2,1.7-0.4,2.6-0.3
			c1.1,0.1,1.9,0.6,2.2,1.7c0.3,1.3,0.6,2.5,0.8,3.8c0.2,1.3,0.2,2.6,0.2,3.9C96.2,86.8,96.4,86.9,95.7,89.5z"/>
		<path d="M193.2,84.6c-0.1-2-0.2-3.9-0.8-5.8c-0.4-1.1-0.7-2.2-1.3-3.2c-0.9-1.5-3.6-2.5-5.4-2.1c-0.1,0-0.1,0-0.2,0.1
			c-0.6,0.2-1.2,0.3-1.8,0.5c-0.5,0.2-1.1,0.4-1.6,0.6c-0.4,0.2-0.7,0.3-1.2,0c-1.4-0.9-4.1-0.6-4.6,1c-0.5,1.7-0.2,5.2-0.2,6.9
			c0,1,0.1,1.9,0.2,2.9c0.2,1.3,0.4,2.6,0.6,3.9c0.3,1.9,2.3,3.4,4.2,3.2c0.3,0,0.8-0.3,0.9-0.5c0.7-1.1,1.3-2.3,1.3-3.7
			c0-1.1-0.1-2.2-0.2-3.3c-0.1-0.9,0-1.7,0.5-2.5c0.2-0.3,0.5-0.6,0.8-1c0.1,0.3,0.2,0.4,0.2,0.5c0.1,0.6,0.1,1.1,0.2,1.7
			c0.2,2,0.7,3.9,1.4,5.8c0.3,0.7,0.5,1.4,1.1,1.9c0.9,0.9,2.3,1.1,3.1,0.4c1-0.9,1.8-2.1,2.3-3.4C193.1,87.2,193.3,86,193.2,84.6z
			 M190.5,88.9c-0.1,0.6-1.2,1.1-1.5,1c-0.8-0.3-1-1.9-1.2-2.7c-0.3-1.6-0.5-3.1-0.8-4.7c-0.2-1-0.4-2-1-2.8
			c-0.5-0.6-1.9-0.8-2.6-0.3c-1,0.8-1.8,1.8-2.3,3c-0.4,1-0.3,2-0.2,3c0.1,1.1,0.3,2.4,0.2,3.5c-0.1,0.9-0.9,1.4-1.4,1.4
			c-0.5,0-0.5-0.9-0.6-1.4c-0.3-2.1-0.6-4.3-0.9-6.5c-0.2-1.3-0.3-2.6-0.4-3.8c0-0.4,0-0.8,0.1-1.2c0.1-0.5,0.6-0.9,1.1-0.6
			c0.3,0.2,0.5,0.7,0.4,1.1c-0.1,0.6-0.2,1.5,0.3,1.8c0.4,0.2,1.2-0.2,1.4-0.6c0.5-1.7,1.6-2.8,3.4-3.2c0.8-0.2,1.7-0.5,2.6-0.4
			c1.1,0.1,2,0.5,2.3,1.6c0.4,1.2,0.7,2.5,1,3.8c0.2,1.3,0.3,2.6,0.4,3.9C190.9,86.2,191.1,86.3,190.5,88.9z"/>
		<path d="M207.3,76.5c0.5-0.7,1.4-2.4,1.8-3c0.9-1.3,1.7-0.9,3.3-1.1c0.9-0.1,1.7-0.2,2.6-0.1c0.8,0.1,1,0.6,1.2,1.2
			c0.4,1.1,0.2,2.2-0.2,3.2c-0.6,1.5-1.4,2.9-2,4.4c-0.9,2.2-1.8,4.4-2.7,6.5c-0.4,0.9-0.8,1.9-1.3,2.7c-0.5,0.9-1.4,1.2-2.5,1.2
			c-0.3,0-0.6-0.2-0.8-0.3c-2-1.3-4.9-8.1-5.3-9.4c-0.6-1.8-1-3.6-1.4-5.4c-0.1-0.6-0.2-1.3-0.1-1.9c0.1-1.1,0.5-1.5,1.6-1.8
			c0.9-0.2,1.8-0.3,2.6-0.4c0.9-0.1,1.3,0.2,1.7,1.1c0.2,0.5,0.4,1.1,0.6,1.6C206.7,75.6,207,76,207.3,76.5z M213.8,74.9
			c0-0.5-1.2-0.6-1.7-0.5c-1.7,0.5-1.6,1.7-2.2,3.2c-0.5,1.2-1,2.5-1.5,3.7c-0.3,0.7-1.1,1.1-1.7,0.9c-0.6-0.7-1.1-2.2-1.1-2.3
			c-0.2-0.9-0.3-1.7-0.6-2.6c-0.3-0.9-0.7-1.7-1.1-2.5c0-0.1-0.3-0.2-0.4-0.2c-0.6,0-1.2,0.8-1,1.6c0.4,1.6,0.7,3.3,1.3,4.9
			c0.8,2.1,1.8,4.2,2.7,6.3c0.2,0.4,0.6,0.8,0.9,1.2c0.2,0.2,0.4,0.3,0.5,0c0.2-0.4,0.4-0.8,0.6-1.2c1.3-3.3,2.5-6.6,4.2-9.8
			C213.2,76.8,213.4,75.9,213.8,74.9z"/>
		<path d="M246.1,72.6c-0.1-1-0.5-1.9-1.5-2.3c-0.8-0.3-1.7-0.4-2.5-0.1c-1.1,0.5-2.1,1-3.1,1.6c-0.2,0.1-0.4,0.3-0.6,0.5
			c-0.2-0.4-0.3-0.7-0.5-1c-0.5-0.9-1.4-1.3-2.4-0.9c-0.2,0.1-0.4,0.1-0.6,0.2c-1,0.2-1.8,0.6-2.6,1.2c-0.7,0.6-0.8,1-0.3,1.8
			c0.2,0.3,0.3,0.6,0.4,0.9c0.3,3.1,0.5,6.1,0.7,9.2c0.1,1.6,0.4,3.1,0.9,4.6c0.4,1.1,1,1.9,2.2,2.2c1.5,0.3,2.7-0.4,2.9-1.8
			c0.3-1.6,0.5-3.3,0.3-5c-0.1-1.1-0.1-2.3-0.1-3.4c-0.1-1.2,0.5-2,1.5-2.6c1.4-0.9,2.8-1.7,4.2-2.6
			C245.7,74.5,246.2,73.7,246.1,72.6z M243.6,73.1c-0.7,0.5-1.5,1-2.2,1.5c-0.8,0.5-1.7,1-2.5,1.5c-0.9,0.5-1.4,1.4-1.9,2.2
			c-0.1,0.1-0.1,0.4,0,0.6c0.1,2,0.2,4,0.2,6c0,1.1-0.2,2.2-0.4,3.3c0,0.1-0.1,0.2-0.2,0.2c-0.1,0-0.4-0.1-0.4-0.2
			c-0.2-0.6-0.5-1.2-0.6-1.8c-0.6-3.4-0.8-6.8-1-10.2c0-0.9-0.2-1.9-0.3-2.8c0-0.1,0.1-0.4,0.2-0.4c0.4-0.2,0.8-0.4,1.2-0.5
			c0.6-0.1,0.7-0.1,0.7,0.6c0,0.4-0.1,0.9,0.1,1.3c0.1,0.3,0.5,0.6,0.8,0.8c0.6,0.3,1.1,0.1,1.6-0.4c1.2-1.3,2.5-2.3,4.1-2.9
			c0.3-0.1,0.7-0.2,0.9,0.2C244.1,72.5,244,72.8,243.6,73.1z"/>
		<path d="M70.5,84.1c-0.2,0.3-0.5,0.6-0.8,0.9c-0.4,0.5-1,0.5-1.6,0.3c-0.5-0.2-0.9-0.4-1-1c-0.1-0.4,0-0.7,0.2-1
			c0.2-0.3,0.2-0.5,0.4-0.8c0.7-0.8,1.1-1.8,2.2-1.7c0.5,0,0.9,0,1.2,0.5c0.1,0.2,0.3,0.4,0.3,0.6C71.7,82.7,71,83.5,70.5,84.1z"/>
		<path d="M140.2,84.5c-0.1,1.2-0.6,1.8-1.8,2.1c-1,0.2-2-0.3-2-1.2c0-0.7,0.2-1.4,0.8-1.8c0.6-0.5,1.3-0.7,2-0.6
			C139.8,83.2,140.3,83.8,140.2,84.5z"/>
		<path class="st0" d="M67.1,112"/>
		<path d="M119.5,77.2c-0.6-1.6-3.2-3.7-4.6-3.5c-1.7,0.1-3.3,0.9-4.5,2.2c-1.9,2.1-2.9,4.9-2.7,7.8c0,2.1,0.5,4.2,1.6,6.1
			c1.3,2.6,4.4,3.8,7.1,2.6c2.9-1.4,4-4,4.5-7S120.5,79.9,119.5,77.2z M119,83.3c0.1,2.3-0.7,4.6-2.3,6.3c-1.2,1.3-3.2,1.5-4.6,0.3
			c-0.1-0.1-0.2-0.2-0.3-0.3c-1-1.2-1.6-2.8-1.7-4.4c-0.4-2.7,0.2-5.5,1.8-7.8c1.4-2,4.9-1.6,5.5,0.4c0.6,1.7,1.1,3.4,1.6,5
			C118.9,83,119.1,83.2,119,83.3z"/>
		<path d="M112.9,82.4c0-1.4,0.5-2,1.4-2c1.2,0,2.1,1,2.1,2.2c0,0,0,0,0,0.1c0,0.5-0.1,1-0.3,1.5c-0.1,0.8-0.8,1.3-1.5,1.3
			c-0.9,0-1.1-0.8-1.3-1.4C113.1,83.5,113,83,112.9,82.4z"/>
		<path d="M133.6,75.6c-0.6-1.3-2-2-3.4-1.7c-0.9,0.3-1.8,0.7-2.6,1.2c-0.7,0.5-1.2,0.6-1.9-0.1c-0.8-0.7-2-0.9-3-0.4
			c-1,0.5-1.6,1.6-1.6,2.7c0.1,1.4,0.2,2.9,0.5,4.3c-0.1,1.7-0.1,3.4,0,5.1c0.2,2,0.4,4,1.6,5.7c0.7,0.9,2,1.1,2.9,0.5
			c0.1-0.1,0.2-0.1,0.2-0.2c0.8-0.9,1.2-2,1.1-3.2c0.1-1.9,0.2-3.8,0.4-5.7c0.1-0.7,0.4-1.4,0.8-2c0.6-0.4,1.2-0.8,1.9-1
			c0.8-0.4,1.6-0.8,2.3-1.4C134.1,78.5,134.3,76.8,133.6,75.6z M131.2,78.5c-0.6,0.4-1.3,0.7-2,1c-0.8,0.4-1.6,0.8-2.4,1.3
			c-0.6,0.3-0.9,1-0.8,1.7c-0.1,2.5-0.3,5.1-0.5,7.6c-0.1,0.3-0.1,0.6-0.3,0.9l-0.3,0.1c-0.2-0.4-0.4-0.7-0.6-1.1
			c-0.9-2.9-0.8-5.9-0.8-8.8c0-1.3,0-2.7,0.1-4c0-0.3,0.3-0.5,0.5-0.8c0.2,0.3,0.3,0.5,0.5,0.8c0,0.1,0.1,0.2,0.1,0.3
			c0.3,0.5,0.4,1.1,0.8,1.4c0.2,0.1,0.9-0.3,1.3-0.6c1-0.7,1.9-1.5,2.9-2.2c0.6-0.5,1.5-0.4,2.1,0.2c0,0,0,0,0,0
			C132.2,77,131.9,78,131.2,78.5z"/>
		<path d="M193.8,76.6c0-0.6,0.1-1.2,0.2-1.8c0.4-1.2,0.8-2.3,2.4-2.1s1.6,1.6,2,2.5c1.5,4,2,8.3,1.7,12.5c-0.2,1.3-0.8,2.6-1.7,3.5
			c-1.3,1.2-2.6,0.9-3.3-0.8c-0.6-1.6-1-3.3-1.2-5c-0.2-1.5-0.1-3.1-0.2-4.7C193.6,79.5,193.6,78,193.8,76.6z M196.4,74.5
			c-0.7-0.5-1,1-1,1.4c0.1,4.2,0.3,8.5,0.6,12.8c0,0.6,0.5,1.6,1.2,1.6s1.1-1.2,1.2-1.8C198.9,83.7,197.8,75.5,196.4,74.5
			L196.4,74.5z"/>
		<path d="M198.2,67.3c0,0.1,0,0.3-0.1,0.6c-0.2,1.6-1.5,3.3-2.6,3.2c-1.8,0-2.2-1.4-2.4-2.7c-0.2-1.2-0.1-2.5,0.4-3.6
			c0.5-0.8,1.4-1.3,2.4-1.4c0.6,0,1.3,1,1.7,1.6c0.4,0.6,0.6,1.3,0.6,2C198.2,67,198.2,67.2,198.2,67.3z M195.1,69.1
			c1.9,0.6,2.7-3.9,0.6-4.2C193.9,64.6,193.4,68.6,195.1,69.1z"/>
		<path d="M280.3,63.7c0.1,1.7,0.1,3.4,0.2,5.2c0,0.7,0.4,0.9,1,0.9c0.8-0.1,1.7-0.1,2.5,0c1.9,0.2,2.8,1.1,2.8,2.9
			c0,1.3-1.2,2.6-2.8,2.9c-0.7,0.1-1.4,0.1-2.1,0.2c-1.4,0.1-1.8,0.3-1.9,1.7c-0.1,1.3,0,2.6,0.1,3.9c0.1,2.1,0.7,4.1,0.1,6.2
			c-0.2,0.7-0.3,1.5-1.2,1.7c-0.9,0.2-1.8-0.1-2.4-0.8c-1-1-1.7-2.3-1.9-3.8c-0.3-2.2-0.7-4.3-0.9-6.5c0-0.7-0.5-1.2-1.2-1.2
			c-0.8-0.1-1.6-0.2-2.3-0.3c-1.9-0.2-2.8-1.4-3.4-3.1c-0.3-0.7-0.3-1.4-0.2-2.1c0.1-0.8,0.5-1,1.1-1.1c1.4-0.1,2.9-0.1,4.3-0.1
			c1.4,0,1.8-0.2,2-1.7c0.2-1.3,0.3-2.5,0.3-3.8c0-2.8,0.4-5.7,1.2-8.4c0.3-1.2,1.4-1.5,2.4-0.8c1.3,0.8,2.1,2.3,2,3.8L280.3,63.7
			L280.3,63.7z M277.9,58.1l-0.5,0c-0.2,1.2-0.6,2.4-0.7,3.6c-0.2,2.5-0.3,5.1-0.5,7.7c-0.1,1.6-0.5,2.1-1.9,2.4
			c-1.6,0.3-3.1,0.7-4.6,1c-0.6,0.1-0.9,0.4-0.6,1c0.3,0.7,0.7,1.3,1.6,1.4c0.9,0.1,1.8,0.2,2.7,0.2c1.2,0.1,2.2,0.8,2.3,1.5
			c0.3,2.7,0.7,5.5,1.1,8.2c0.1,0.9,0.6,1.8,1.4,2.3c0.1-0.2,0.3-0.4,0.3-0.5c0-0.8,0-1.6,0-2.4c-0.2-2.5-0.4-4.9-0.5-7.4
			c-0.1-1.8,1.1-2.8,2.9-2.9c0.4,0,0.8,0,1.3,0c0.5,0,1-0.1,1.5-0.2c0.7-0.3,1.2-1,1.1-1.8c-0.2-0.8-0.9-0.8-1.6-0.8
			c-0.9,0-1.8,0.1-2.6,0.1c-1.3,0-2.1-0.7-2.1-2c-0.1-3.4-0.2-6.8-0.4-10.2C278.1,58.8,278,58.4,277.9,58.1z"/>
		<path d="M255.2,75.9c1.4,1.4,3,2.6,3.9,4.2c2.1,3.6,2,6.5-1.3,8.7c-2.9,2-7.9,1.7-9.5-1.4c-0.6-1-0.8-2.2-0.7-3.4
			c0.2-1,1.1-1.7,2.1-1.5c0.2,0,0.3,0.1,0.5,0.1c1.1,0.5,1.6,0.5,2.1-0.5s-0.2-1.5-0.9-1.9c-0.5-0.3-1.1-0.5-1.7-0.6
			c-3.4-1.1-4.6-4-2.8-7.1c1.6-2.8,5.2-3.7,8-2c0.5,0.3,1,0.7,1.4,1.2C258,73.7,257.6,75.1,255.2,75.9z M254.9,73.2
			c0.1-1.6-1.7-2.4-3.5-1.7c-1.9,0.7-3.3,2.2-3.4,4c0,1.9,1.4,2.4,2.9,2.8c0.3,0.1,0.8,0.1,1,0.3c0.8,0.8,2,1.5,2.3,2.5
			c0.8,2.3-2.2,3.2-4.5,3.3c-0.8,0-0.6,2,1.1,3c1,0.6,3.4,1.5,5.3,0.5c2.6-1.4,3.4-3.4,2.1-6.1c-0.9-1.9-2.2-3.4-4.5-4.1
			c-0.8-0.2-0.8-0.8-1-1.5c-0.1-0.4,0.1-0.9,0.7-1.5C254,74.3,254.9,74.1,254.9,73.2z"/>
		<path d="M267.9,82.4c0,2-0.3,3.9-0.9,5.8c-0.5,1.9-2,2.1-3.5,0.8c-2-1.7-2.4-4.2-2.7-6.4c-0.3-3.6-1.2-6.4-0.2-10.1
			c0-1.4,2.4-2.5,3.6-1.5c1.1,0.9,1.9,2.1,2.3,3.4C267.4,77,267.8,79.7,267.9,82.4z M263.2,72.5c-3.1,0.6-0.2,15.6,1.9,15
			C268.4,86.7,265,72.1,263.2,72.5z"/>
		<path d="M265.5,64.9c0,2-1.5,3.7-3.2,3.7c-1.6-0.1-2.9-1.4-2.8-3c0-2,1.3-3.6,3-3.6C264.4,62,265.5,63,265.5,64.9z M264,64.3
			c-0.2-0.3-0.7-1.2-1.4-1.1c-1,0.2-1.4,1.4-1.6,2.3c-0.1,0.4,0.8,1.5,1.3,1.7C263.1,67.4,264.7,65.8,264,64.3z"/>
		<g>
			<path d="M301.6,71.7c-0.6-2.6-4.3-3.5-6.3-1.8c-1,0.8-2,0.8-3.1,0.5c-0.2-0.1-2.7-0.5-4.1,0.9c-1.7,1.7-0.5,14.8,0.5,16.5
				c0.8,1.5,2.9,1.5,4.4,0.9c1.2-0.5,3-0.7,1.9,1.2c-0.9,1.5-2.4,1.2-3.9,1.2c-0.5,0-3.5-1.9-4.8-0.7c-1.3,1.1-0.9,3.2-0.3,4.8
				c0.9,2.6,2.8,4.2,5.5,5c1.7,0.5,3.5,0.7,5.3,0.4c2.7-0.6,4.1-4.1,4.5-6c0.4-1.7,0.9-3.6,1.2-5.3c0.3-1.5,0.1-0.4,0.2-2.5
				C302.6,84.9,303.2,79.4,301.6,71.7z M299.9,90.7c-0.2,2.4-0.7,6.6-3.9,7.9c-1.5,0.6-4-0.1-5.4-0.9c-1.2-0.7-3.8-4.2-2.6-5.1
				c1.4-1.1,3.7,1.5,5.2,1.2c0.6-0.1,1.3-0.4,1.7-0.8c1.5-1.5,2.1-3.3,2.3-5.6c0.2-3.5-0.2-4.4-1.1-4.4c-1.1,0-1.1,1.1-1.8,2.1
				c-0.5,0.8-1.1,0.8-2,1.2c-0.5,0.2-1.3,0.1-1.6-0.3c-0.8-1.1-1.1-2-1.3-3.2c-0.1-1.7-0.3-7.1,0.1-9.5c0.2-1,0.9-0.7,1.8-0.6
				c2.2,0.4,1.6,5.3,1.5,6.2c-0.2,0.9-0.4,2,0.4,2.2c0.8,0.2,1.6-0.6,1.9-1.5c0.4-1.3,0.7-5.5,1.1-6.8c0.1-0.3,0.3-0.5,0.5-0.7
				c0.7-0.7,2.2-0.8,2.7,0.2c1,2,1.9,8.9,1.1,13.3C300,87.4,300.1,87.8,299.9,90.7z"/>
		</g>
		<path d="M229,73.2c-1.7-1.3-3.6-1.3-5.6-1.5c-3.5-0.2-5.6,2-6.4,5.1c-0.8,3.1-0.7,6.4,0.2,9.5c0.6,2.7,2.8,4.7,5.5,5.2
			c2.6,0.5,5.2-0.4,6.9-2.4c2-2.3,1.8-5-0.6-6.7c0.7-0.6,1.4-1.3,2-1.9c0.3-0.4,0.8-0.9,0.8-1.3C231.9,76.9,230.8,74.7,229,73.2z
			 M227.1,80.5c-1.7,0.8-3.2,1.7-4.7,2.8c-0.7,0.4-0.1,1.9,0.9,2.2c1.3,0.4,2.7,0.7,4,0c0.3-0.1,0.6-0.2,0.9-0.3
			c0.3,1.5-0.5,3-2,3.6c-1.1,0.3-2.3,0.4-3.4,0.3c-1.9-0.3-2.9-1.8-3.3-3.6c-0.8-2.7-0.8-5.7,0.1-8.4c0.4-1,0.9-2.2,1.7-2.7
			c2-1,6.1-0.6,7.5,2.1C229.8,78.5,229.2,79.6,227.1,80.5z"/>
		<path d="M223.8,80c-1.2,0.4-1.4-0.7-1.9-1.2c-0.2-0.2-0.2-0.9-0.1-1.1c1-0.8,2.4-0.9,3.5-0.3c0.6,0.3,0.9,0.9,0.2,1.4
			C225,79.2,224.4,79.6,223.8,80z"/>
		<g>
			<path d="M63.4,77.4c-0.3-0.8-1.4-1.1-2.4-1.1c-0.6,0-1.1-0.1-1.7-0.1c-0.6,0-0.9-0.3-0.9-0.8c-0.1-0.6-0.2-1.1-0.2-1.7
				c-0.1-1.9-0.2-3.7-0.3-5.6c-0.1-1.4-0.1-2.7-0.1-4.1c0-1-0.4-1.8-1.3-2.3c-0.8-0.5-1.7-0.5-2.7-0.5c-0.7,0-1.1,0.2-1.5,0.6
				c-0.4,0.3-0.7,0.4-1.2,0.9c-1.6,1.3-1.5,4.3-1.2,6.7c0.2,1.4,0.1,2.9,0.2,4.4c0,0.7,0,0.7-0.7,0.7c-1.4,0.1-2.9,0.2-4.3,0.5
				c-1.3,0.3-2.7,0.9-2.8,2.3c-0.1,0.9,0,0.6,0.3,1.5c0.2,0.2,0.4,0.4,0.5,0.5c0.9,1,2.1,1.6,3.5,1.8c0.7,0.1,1.3,0.1,2,0.2
				c0.6,0,0.7,0.1,0.7,0.8c0,2.3-0.2,4.6,0.7,6.8c0.5,1.3,1.1,2.4,2.1,3.2c0.8,0.8,1.6,0.8,2.6,0.2c0.3-0.2,0.6-0.4,0.9-0.6
				c1.1-0.8,2-1.8,2.2-3.2c0.1-0.7,0.2-1.4,0.2-2c0-0.9,0.1-1.8,0-2.8c0-0.7-0.1-0.8,0.6-0.8c1-0.1,3-0.5,3.7-1.3
				C63.1,80.7,63.8,78.7,63.4,77.4z M61.1,79.5c-0.6,0.6-1.5,1-2.3,1.1c-0.8,0.1-1.5,0.2-2.3,0.2c-0.2,0-0.4,0-0.6,0.1
				c-0.8,0.2-1,0.7-0.7,1.5c0,0.1,0.1,0.3,0.1,0.4c0.1,1.6,0.2,3.3-0.2,4.9c-0.2,0.8-0.4,1.7-1.1,2.2c-0.4,0.4-0.8,0.3-1.1-0.2
				c-0.6-1.1-0.9-2.4-1-3.6c-0.1-0.7-0.1-1.5-0.1-2.2c0,0,0,0,0,0c0-1,0-2,0-3.1c0.1-1-0.6-1.4-1.5-1.6c-0.3-0.1-0.6,0-0.8,0
				c-0.9,0-1.8,0-2.7-0.1c-0.5-0.1-1.1-0.4-1.6-0.6c-0.4-0.2-0.4-0.4-0.1-0.7c0.8-0.7,1.7-1,2.7-1.1c0.6,0,1.2-0.1,1.9-0.1
				c0.6,0,1.1,0,1.7,0.1c0.9,0,1.4-0.3,1.3-1.2c-0.2-2-0.4-4-0.5-6.1c-0.1-0.8-0.1-1.6-0.2-2.4c0-0.1,0-1,0-1.1
				c0.1-0.7,0.2-0.6,0.6-1.2c0.4-0.5,1.1-0.9,1.8-1c0.4-0.1,0.7,0.1,0.7,0.5c0.1,2.3,0.3,4.5,0.4,6.8c0,0.8,0,1.5,0.1,2.3
				c0,0.8,0.1,1.7,0.2,2.5c0.2,1.5,1.5,2.8,3.1,2.8c0.6,0,1.1,0,1.7,0c0.3,0,0.5,0.2,0.7,0.3C61.3,79,61.3,79.3,61.1,79.5z"/>
		</g>
		<g>
			<path d="M81,86.6c-0.1-2.2-0.2-6.6-0.8-8.7c-0.5-1.7-2-2.8-3.7-3.5c-2-0.8-4-1.2-6.1-0.2c-0.4,0.2-0.9,0.4-1.3,0.7
				c-1.4,0.6-2.6,1.6-3.6,2.8c-1.7,2-3.4,6.3-3.3,8.6c0.1,1.3,0.3,2.6,0.9,3.7c0.6,1.1,1.6,1.7,2.7,2.3c0.9,0.5,1.8,0.6,2.8,0.3
				c0.4-0.1,0.8-0.3,1.2-0.5c0.6-0.3,1.2-0.6,1.7-1.1c0.6-0.5,1-1.1,1.5-1.7c0.4-0.4,0.5-0.4,0.8,0.1c0.5,1.1,1.2,2.1,2.2,2.8
				c0.9,0.7,3.2,0.5,3.8-0.8c0.3-0.8,0.7-1.5,0.9-2.3C80.8,88.3,81,87.5,81,86.6z M78.2,88.1c-0.2,0.7-0.5,1.4-0.8,2.1
				c-0.2,0.3-0.6,0.3-0.8-0.1c-0.3-0.6-0.7-1.1-0.9-1.8c-0.4-1.1-0.6-2.2-0.9-3.3c-0.1-0.3-0.5-0.7-0.8-0.9C73,83.7,72.2,84,72,85
				c-0.4,1.7-1.3,3.1-2.6,4.2c-0.5,0.5-1.1,0.8-1.7,1.1c-0.4,0.3-0.9,0.2-1.3,0c-1.3-0.4-1.7-1.5-1.9-2.7c-0.3-1.9,0.1-3.8,0.9-5.6
				c1.4-3.1,3.7-5.1,6.9-6.2c1.7-0.6,5.2,0.2,5.7,2.1c0.3,1.3,0,4,0.2,5.4C78.2,85,78.5,86.5,78.2,88.1z"/>
		</g>
	</g>
</g>
</svg>
