<svg id="Layer_1" data-name="Layer 1" xmlns="https://www.w3.org/2000/svg" viewBox="0 0 324.6 74.37"><path d="M112.38,29.06c-3.82-1-7.47-.87-10.85,1.8a32.57,32.57,0,0,0-1.84-3c-1-1.26-2.42-2.36-3.89-1.54a4.2,4.2,0,0,0-1.54,3.29c.12,4,.52,8,1,12a41.61,41.61,0,0,0,1.43,7.79,10.18,10.18,0,0,0,2.84,3.92c.95.92,2.22.79,2.53-.8.59-3,1.21-6.11,1.5-9.19.32-3.41,1-4.26,4.33-4.74a25.12,25.12,0,0,0,5-1.15A4.59,4.59,0,0,0,116,33C116,31.21,114.6,29.68,112.38,29.06Zm.05,5.63a18.27,18.27,0,0,1-4.56,1.75,7.89,7.89,0,0,1-1.77.15c-3,.2-4.64,2-4.86,4.95s-.67,5.69-1,8.54l-.82,0c-1.65-2.29-1.7-5.09-2-7.72-.36-3-.26-6.07-.42-9.1,0-.71-.38-1.4-.43-2.1a22.14,22.14,0,0,1,.13-2.66c2,1,2.44,2.46,2.84,4a9.3,9.3,0,0,0,1.28,2.23,9.12,9.12,0,0,0,1.88-1.38,8.57,8.57,0,0,1,9.45-2.2C113.9,32,114.15,33.52,112.43,34.69Z"/><path d="M139.74,42.65c.12,5.85-2.16,9.21-7.23,10.64C126.69,54.94,122,53.08,119,47.9s-2.74-10.17-1.23-15.68c.58-2.13,2.27-3.82,4.29-5.4.41-.32,1-.52,1.41-.82,4.35-2.86,5.52-2.71,9.23,1.19C137.24,32,139.63,37.22,139.74,42.65ZM119,40.42c-.08,1.78,1.08,5.23,3.23,7.67,2.81,3.19,5.53,4,9.3,3,3.1-.78,5-3,5.62-6.6,1.12-7-2.22-12.24-7.18-16.63a4.68,4.68,0,0,0-3.74-.48C121.36,28.74,119.31,33.58,119,40.42Z"/><path d="M132.56,39.12a10,10,0,0,1-.25,2,6.13,6.13,0,0,1-3.82,3.7c-2.33.55-2.92-2-3.55-3.72-.76-2.12-1.13-4.46.79-6.08,1-.85,3.24-1.69,3.93-1.19a5.8,5.8,0,0,1,2.9,5.29Zm-4.77,2.58a.85.85,0,0,0,.86.15A3.08,3.08,0,0,0,130,39.5a3,3,0,0,0-.58-2.77c-.16-.17-1.35-.46-1.74-.08-.8.81-.52,1.66-.58,2.57A3.11,3.11,0,0,0,127.79,41.7Z"/><path d="M182.15,41.6c-1.27-1.72-3.14-1.7-4.79-1.13-2.29.79-4.11,2.44-7,2.21a2.75,2.75,0,0,1-2.5-1.4A1.38,1.38,0,0,1,169,39.07a17.2,17.2,0,0,1,4.91.08c3.06.45,6.82-2.17,6.49-4.8a13.47,13.47,0,0,0-6.5-9.93,5.63,5.63,0,0,0-3.77-.94,19.91,19.91,0,0,0-10.56,5.92c-4.43,5-4.71,10.64-1.52,16.26,2.66,4.68,6.42,8.23,10.4,8.52,7.21.19,11.16-2.33,14.1-6.59A5.52,5.52,0,0,0,182.15,41.6Zm-2.48,4.86c-2.74,3.57-6.3,6.24-11,5.31-4.23-.85-7-4-8.91-7.8-2.54-5.2-1.26-12.07,6.19-16.12.19-.1.36-.23.55-.33,5.33-3.13,8.73-1.89,11,4,.53,1.4.72,2.72-.42,3.93s-2.47,2.11-4.12,1.43c-2.39-1-4.37-.12-6.43.88-1.46.7-1.84,1.76-1.12,3.1,1.66,3,3.18,5.11,6.83,4.55,1.71-.26,3.18-1.34,4.81-1.87,1-.32,2.28-1.23,3-.54S180.27,45.67,179.67,46.46Z"/><path d="M172.78,29.48c-2-1.35-4-.8-5.76.22A3.26,3.26,0,0,0,165.38,32a4.21,4.21,0,0,0,1.74,2.62,4.78,4.78,0,0,0,3.55,1.08,5.71,5.71,0,0,0,3.73-2.33C175.19,32.1,174.19,30.45,172.78,29.48Zm-3.41,4.24c-1,0-1.77-.79-1.71-1.39.11-1.11,1.94-1.16,3-1.47a.15.15,0,0,1,.09,0c.45,0,1.4.34,1.42.9C172.18,32.82,170.64,33.76,169.37,33.72Z"/><path d="M194,34.12c-1.43.59-1.91,7.55.11,8.47,1.27.58,2.86-1.85,3.34-2.29,2.43-2.22,4.85-1.3,6.36,1.36,3.32,5.85-2.48,12.8-10.37,12.51a7.5,7.5,0,0,1-6.63-4.11c-3-4.94-2.52-10.17-1.84-15.37a13.05,13.05,0,0,1,4.44-8.84,7.27,7.27,0,0,1,6.91-1.56c2.89.69,4.12,2.28,4.6,4.45a3,3,0,0,1,.19,1.66C199.5,34.6,198.48,32.24,194,34.12Zm5.93,8.43c-1.53.06-1.47,1.28-2.38,2.07a3.9,3.9,0,0,1-4.85.54c-2.71-1.56-2.41-3.7-2.38-6.35,0-2.25,1.5-7.37,4.32-8.29,2.2-.77,2.31.88,3.39.16s.59-1.3-.43-3a3.29,3.29,0,0,0-4.83-.79c-1.13,1-2.86,1.93-3.5,3.14-2.93,5.58-3,11.1-1.26,16.92.25.83,1.58,2,2.12,2.79,1.57,2.2,4.25,2.85,7.06,1.77C200.8,50.14,204.24,42.36,199.9,42.55Z"/><path d="M246.59,33.74c1.89,2.15,4.15,3.95,5.4,6.28,2.88,5.34,2.54,9.51-2.33,12.59-4.28,2.7-11.54,2-13.64-2.49a7.43,7.43,0,0,1-.78-5,2.7,2.7,0,0,1,3.8-2c1.62.73,2.23.79,3.09-.63s-.17-2.22-1.28-2.81a18,18,0,0,0-2.4-1c-4.93-1.72-6.45-6.06-3.65-10.42a8.41,8.41,0,0,1,13.59-.73C250.71,30.68,250,32.78,246.59,33.74Zm-.3-3.94c.19-2.38-2.27-3.58-5-2.7s-5,3.07-5.09,5.57c-.16,2.81,2,3.55,4.06,4.28.49.17,1.11.2,1.44.53,1.18,1.18,2.8,2.29,3.27,3.74,1.06,3.31-3.43,4.49-6.7,4.58-1.13,0-1,2.86,1.43,4.37,1.48.91,4.91,2.39,7.7,1,3.86-1.88,5.05-4.77,3.31-8.75-1.23-2.81-3-5.12-6.25-6.14-1.11-.35-1.1-1.16-1.36-2.21-.16-.66.18-1.37,1.12-2.12C244.93,31.41,246.19,31.19,246.29,29.8Z"/><path d="M223.08,17.53q0,3.7,0,7.42c0,1,.58,1.25,1.43,1.26a31.2,31.2,0,0,1,3.62.11c2.73.38,3.93,1.77,3.9,4.29a4.49,4.49,0,0,1-4.14,4,29.43,29.43,0,0,1-3,.16c-2.06,0-2.59.33-2.85,2.37a43.4,43.4,0,0,0-.09,5.59c0,3,.81,6-.11,8.94-.32,1-.54,2.15-1.84,2.45a3.34,3.34,0,0,1-3.36-1.27,9.43,9.43,0,0,1-2.48-5.47c-.28-3.12-.75-6.22-1-9.34a1.74,1.74,0,0,0-1.67-1.78c-1.11-.19-2.21-.38-3.33-.54-2.69-.37-4-2.15-4.7-4.57a5.71,5.71,0,0,1-.24-3c.26-1.17.78-1.47,1.7-1.47,2.08,0,4.16,0,6.24.12s2.58-.26,2.91-2.28a39.51,39.51,0,0,0,.57-5.43,44.37,44.37,0,0,1,2.2-12c.52-1.66,2.05-2.08,3.49-1.08A6.43,6.43,0,0,1,223,11.66v5.87Zm-3.22-8.2-.65,0c-.39,1.71-.93,3.4-1.15,5.12-.46,3.65-.74,7.31-1.12,11-.23,2.24-.89,3-2.79,3.32-2.24.4-4.47.87-6.71,1.23-.91.15-1.3.58-.93,1.39.45,1,1,1.94,2.28,2.07s2.57.35,3.86.49c1.65.18,3.12,1.22,3.21,2.26.35,3.94.68,7.88,1.11,11.81a4.7,4.7,0,0,0,1.9,3.39c.2-.29.48-.51.5-.75a31.72,31.72,0,0,0,.1-3.38c-.11-3.55-.37-7.11-.37-10.67,0-2.55,1.72-4,4.28-4,.61,0,1.21.09,1.82.05a10.48,10.48,0,0,0,2.17-.27,2.71,2.71,0,0,0,1.73-2.52c-.29-1.2-1.29-1.23-2.28-1.22-1.26,0-2.52.05-3.78,0a2.67,2.67,0,0,1-2.9-3c0-4.87,0-9.74,0-14.61A9.51,9.51,0,0,0,219.86,9.33Z"/><path d="M72.7,43.35c-.54-5-1.41-10.72-1.7-16.47a82.53,82.53,0,0,1,.32-15.8c.61-4.31,3.77-7.77,7.54-9.84,3.37-1.86,7.37-.87,10.56.84,4.32,2.3,7.76,5.75,9,10.82,1.53,6.37-3.5,15.65-9.78,15.77-3.54.06-5.1,2.67-5.69,5.75-.75,3.95-1.17,8-1.87,11.92a27.84,27.84,0,0,1-1.47,5.21c-1.13,2.93-3,3-5.1.6S72.29,47,72.7,43.35Zm3.39,7.21a1,1,0,0,0,1.12,0c1.91-1.55,1.07-4.8,1.55-7.21.83-4.17,1.46-8.37,2.47-12.49.61-2.51,2.56-3.89,5.2-4.21a9.23,9.23,0,0,0,6.39-3.25C98.51,16.45,96.6,7.59,87.2,3.66c-2.09-.87-4.8-1.83-7.07-.13C76.2,6.46,73.19,10.1,73,15.26a105.23,105.23,0,0,0,.2,11.37c.54,7.23,1.29,14.44,2,21.65A3.06,3.06,0,0,0,76.09,50.56Z"/><path d="M80.88,15.76c0-2.69,2-5.22,4.11-5.22,2.73,0,5.31,2.75,5.32,5.65s-2,5.52-4.41,5.56C83,21.8,80.93,19.3,80.88,15.76Zm4.68-2.95c-2.41.07-2.59,3.15-1.88,5.27.51,1.54,1.78,1.78,2.93.64C88.54,16.8,88.65,12.72,85.56,12.81Z"/><g id="hqQul4.tif"><path d="M144.42,51.51c-.29-6.06-1.92-11.94-2.08-18a15.5,15.5,0,0,1,.47-4.19c.35-1.47,1.51-2.42,2.89-2a35.36,35.36,0,0,1,5.53,2.15c2,1,2.08,3.16,2.26,5,.32,3.44-.24,6.93-.36,10.38-.21,6.36.7,12.73-.47,19a10.81,10.81,0,0,1-3.7,6.47,24.57,24.57,0,0,1-4.33,3.06c-1.64.86-3.36.11-4.9-.53a17.36,17.36,0,0,1-8.63-7.22,6.83,6.83,0,0,1-.85-3.57,11.54,11.54,0,0,1,1.05-4.64c.76-1.5,2.39-1.7,4.06-1.37a3.77,3.77,0,0,1,2.88,2.77,15.11,15.11,0,0,0,1.35,2.91,1.64,1.64,0,0,0,3-.06A13.49,13.49,0,0,0,144,57.49C144.28,55.52,144.29,53.51,144.42,51.51Zm2.14-21c-2.45.83-1,10.54-1,10.54a40.87,40.87,0,0,1,1.38,8.75,30.63,30.63,0,0,1-1,10.29C145.17,63,144,65,141.17,65.41a4.14,4.14,0,0,1-2.77-.67,8.11,8.11,0,0,1-3-4.21c-.12-.37-.11-.88-.44-1.09s-.79-.34-1-.13-.12.45-.14.59a7.93,7.93,0,0,0,1.65,6.43,15.86,15.86,0,0,0,6.74,4.54,2.63,2.63,0,0,0,2.77-.5c2.6-2,4.61-3.3,5.28-6.58,1.32-6.52.28-14.5.48-21.06a58.3,58.3,0,0,0-.75-9.68C149.76,31.27,148.36,29.87,146.56,30.49Z"/></g><path d="M143.14,19.88c.09-3.19,2.58-5.9,5.38-5.84a4.83,4.83,0,0,1,4.39,5c-.11,3.26-2.38,5.76-5.12,5.66C144.75,24.59,143.06,22.84,143.14,19.88Zm2.5,1.07c.23.53,1,2,2.12,1.88,1.56-.19,2.31-2.13,2.76-3.56.19-.61-1.22-2.53-2.06-2.84C147.19,16,144.5,18.39,145.64,21Z"/></svg>