<svg id="Layer_1" data-name="Layer 1" xmlns="https://www.w3.org/2000/svg" viewBox="0 0 324.6 55.56"><path d="M76.34,48c-1.11,1.46-1.8,2.38-2.51,3.3C71,55.05,66,54.9,63.71,50.85,61,46.1,60.9,40.72,60.36,35.47c-.19-1.85-.55-3.64,1.06-5.24,2.13-2.11,5.21-1.65,6.13,1.22a28.46,28.46,0,0,1,.74,4.82c.19,1.45-.43,3.21.48,4.36a.72.72,0,0,0,.75.27c1.25-.51,1.66-2.09,2.25-3.3,1.08-2.22,1.38-5,2.84-6.93,1.82-2.41,4.46-2.05,5.78.69a28.18,28.18,0,0,1,2.67,7.89,76.08,76.08,0,0,1,.7,12.53c0,1.23-.85,3.47-2.29,3.63s-2.22-1.81-3-2.93A30.19,30.19,0,0,1,76.34,48Zm4.55,3.83c2.53.66.35-21.53-3.85-20.26-2.4.73-2.26,4.36-3.31,6.54-.83,1.72-1.51,3.66-2.79,5C69.12,45,67,44.27,66.56,41.66c-.4-2.21-.38-4.49-.68-6.72-.15-1.09,0-2.61-.94-3.22a.77.77,0,0,0-.84.11c-1.45,1.3-1.32,3.81-1.24,5.68a48.22,48.22,0,0,0,1.45,8.73c.51,2.16,1,4.72,3.62,5.27s3.94-1.69,5.21-3.58c1.9-2.82,4.33-3.27,5.92-.22C79.59,48.73,80,51.63,80.89,51.87Z"/><path d="M118.25,47.73c.19,4.43-1.29,6.79-3.79,7.25s-4.34-1.3-4.71-4.8c-.78-7.52-1.58-15-2.29-22.55a156.69,156.69,0,0,1-1.17-16.29c-.48-2.16.89-5,3.4-5.33a4,4,0,0,1,2.83,1,9.1,9.1,0,0,1,1.54,4c1,9.28,1.53,18.62,2.57,27.91C117,42.28,117.83,45.54,118.25,47.73ZM111.18,9A1,1,0,0,0,110,8.93c-1.54,1.13-1.4,3.75-1.26,5.56.66,8.69,1.61,17.35,2.49,26,.33,3.33.69,6.66,1.22,10,.12.74.68,2,1.55,2s1.3-1.31,1.66-2.1a4.41,4.41,0,0,0,.21-2.29c-.27-2-.77-4-1-6-1-8.5-1.87-17-2.81-25.5C111.78,14.1,113,10.79,111.18,9Z"/><path d="M275.2,33.63c1.87,2.12,4.09,3.89,5.33,6.19,2.83,5.26,2.49,9.37-2.3,12.4-4.22,2.67-11.38,2-13.44-2.45a7.34,7.34,0,0,1-.77-4.9A2.64,2.64,0,0,1,267.76,43c1.6.71,2.2.77,3.05-.63s-.17-2.18-1.26-2.77a16.67,16.67,0,0,0-2.36-1c-4.86-1.7-6.36-6-3.6-10.27A8.29,8.29,0,0,1,277,27.6C279.27,30.62,278.61,32.68,275.2,33.63Zm-.29-3.88c.18-2.35-2.24-3.53-4.92-2.66s-4.87,3-5,5.49c-.16,2.76,1.93,3.49,4,4.21.49.17,1.1.2,1.42.53,1.17,1.16,2.76,2.25,3.22,3.68,1.06,3.26-3.37,4.42-6.6,4.51-1.11,0-1,2.83,1.41,4.31,1.46.9,4.84,2.36,7.59,1,3.81-1.86,5-4.7,3.27-8.63-1.21-2.77-3-5-6.16-6.05C272,35.82,272,35,271.78,34c-.16-.64.17-1.34,1.1-2.09C273.57,31.34,274.81,31.11,274.91,29.75Z"/><path d="M214.65,44.72a28.89,28.89,0,0,1-1.43,7.44c-.76,2.38-2.69,2.57-4.58.85-2.48-2.25-2.94-5.59-3.16-8.46-.22-4.62-1.21-8.36.26-13.1,0-1.79,3.18-3.19,4.74-1.81a9.37,9.37,0,0,1,2.82,4.57A39.43,39.43,0,0,1,214.65,44.72ZM209,31.62c-4.08.7-1,20.16,1.79,19.53C215.05,50.21,211.31,31.24,209,31.62Z"/><path d="M214.64,19.78c-.08,3.15-2.54,5.82-5.3,5.76A4.75,4.75,0,0,1,205,20.61c.11-3.21,2.34-5.68,5-5.58C213.06,15.14,214.72,16.86,214.64,19.78Zm-2.46-1.06c-.23-.52-1-2-2.08-1.85-1.54.19-2.28,2.1-2.73,3.51-.19.6,1.2,2.5,2,2.8C210.65,23.64,213.3,21.25,212.18,18.72Z"/><path d="M120,33.15a13.51,13.51,0,0,1,.33-2.56c.55-1.64,1.2-3.2,3.44-2.87s2.16,2.28,2.63,3.65A41.63,41.63,0,0,1,128.12,49a8.37,8.37,0,0,1-2.55,4.87c-1.85,1.68-3.74,1.11-4.61-1.26a30.14,30.14,0,0,1-1.46-7c-.24-2.15,0-4.34,0-6.52A34.13,34.13,0,0,1,120,33.15Zm3.66-2.9c-1-.75-1.48,1.36-1.47,1.84,0,5.95.06,11.91.26,17.87,0,.78.61,2.29,1.56,2.31s1.65-1.56,1.79-2.44C126.75,43.24,125.64,31.78,123.62,30.25Z"/><path d="M126.53,20.31c0,.19,0,.39-.1.77-.3,2.22-2.2,4.48-3.85,4.4-2.45-.12-3-2.09-3.16-3.93a10.2,10.2,0,0,1,.68-5.07,4.39,4.39,0,0,1,3.36-1.82c.78,0,1.75,1.4,2.34,2.36a5.57,5.57,0,0,1,.73,2.76C126.53,19.89,126.54,20.18,126.53,20.31Zm-4.43,2.4c2.6.93,4-5.39,1.08-5.91C120.71,16.37,119.82,21.89,122.1,22.71Z"/><path d="M44.17,43.05c-.54-4.93-1.39-10.56-1.68-16.22a81.73,81.73,0,0,1,.31-15.57C43.4,7,46.52,3.6,50.24,1.55c3.31-1.82,7.26-.85,10.4.83,4.25,2.27,7.64,5.67,8.84,10.67C71,19.32,66,28.47,59.84,28.58c-3.49.07-5,2.64-5.6,5.67C53.5,38.14,53.08,42.1,52.39,46a27,27,0,0,1-1.45,5.13c-1.11,2.89-3,3-5,.59S43.76,46.64,44.17,43.05Zm3.34,7.11a1,1,0,0,0,1.09,0c1.89-1.52,1.06-4.73,1.53-7.1C51,39,51.57,34.8,52.56,30.74c.61-2.47,2.53-3.83,5.13-4.14A9.11,9.11,0,0,0,64,23.4c5.62-6.86,3.74-15.59-5.53-19.46-2.06-.86-4.73-1.8-7-.13-3.87,2.89-6.83,6.48-7,11.56a102.06,102.06,0,0,0,.2,11.2c.53,7.13,1.26,14.24,2,21.34C46.73,48.68,46.84,49.71,47.51,50.16Z"/><path d="M52.23,15.86c0-2.64,1.93-5.14,4-5.14,2.69,0,5.24,2.71,5.24,5.57s-2,5.43-4.34,5.47C54.33,21.81,52.27,19.36,52.23,15.86ZM56.83,13c-2.37.07-2.54,3.11-1.85,5.2.5,1.52,1.75,1.75,2.89.63C59.77,16.89,59.88,12.87,56.83,13Z"/><path d="M92.63,21.27c0,3-.46,6.84,1.7,10.36,1,1.7,2.18,2.75,4.28,2.57a18.81,18.81,0,0,1,3.52,0,4.73,4.73,0,0,1,4.51,4.3c.25,1.76.34,3.55.46,5.33.3,4.59-1.95,7.72-5.88,9.76-4.12,2.15-8.4,2.38-12.11-.55C87.73,52,87,49.63,86.7,47.75,85.89,41.89,85.34,36,84.91,30.1q-.73-9.88-1-19.81a6.25,6.25,0,0,1,1.59-3.84c1.6-1.83,4.07-1.34,5.24.8C93,11.42,92.72,16,92.63,21.27Zm-4-13a.87.87,0,0,0-1.06-.18c-1.5,1-1.14,3.54-1.08,5.3q.33,10.16,1.13,20.29a129.58,129.58,0,0,0,1.7,13.9c.82,4.29,4.34,6.09,8.51,4.89,4.43-1.26,6.78-4.51,6.81-9.41,0-5.9-.57-6.57-6.4-6.67a6.17,6.17,0,0,1-5.47-2.91c-2.81-4-3-8.36-2.6-13C90.6,16.3,90.38,10.64,88.67,8.24Z"/><path d="M97.27,39.46c-2,.06-3.3,1.7-3.29,4s1.11,3.58,2.82,3.6c2.08,0,4.23-2.22,4.25-4.46C101.07,40.63,99.58,39.38,97.27,39.46Zm2,4.44h0a1.53,1.53,0,0,1-.54.88,1.93,1.93,0,0,1-1.23.36,2.12,2.12,0,0,1-1.65-.71,1.35,1.35,0,0,1,0-1.69,1.89,1.89,0,0,1,1.69-.86,1.78,1.78,0,0,1,1.66,1A1.57,1.57,0,0,1,99.22,43.9Z"/><path d="M177.23,46.2c-1.69-4.76-3.3-9.56-5.3-14.19-1.8-4.21-8.32-6.22-11.91-3.38-5.53,4.37-9,10.1-8.37,17.52.3,3.56,4.45,7.8,7.67,8.24,4.43.6,6.76-.89,8.83-5.84.9.81,1.6,1.54,2.39,2.13,1.75,1.3,3.65,1.83,5.64.53S177.89,48,177.23,46.2Zm-3,3c-.75.45-1.95-.22-2.46-.77-1.06-1.11-1.71-2.58-2.67-3.79a2.47,2.47,0,0,0-1.78-1c-.48.07-1,1-1.21,1.59-.51,1.46-.53,3.18-1.34,4.42a5.24,5.24,0,0,1-3.32,2.26c-4,1.16-7.59-4.71-7.51-8.78.11-5.13,3.51-9.31,7.52-12.58,2.13-1.74,4.24-1.12,6.16.73,4.51,4.32,4.94,10.36,7.06,15.68C174.92,47.56,174.91,48.83,174.23,49.23Z"/><path d="M161.63,35.41c-2.28.84-4.15,5-3.27,7.28.64,1.72,2.3,2.37,3.44,1,1.36-1.58,3-3.27,3.37-5.36A2.57,2.57,0,0,0,161.63,35.41ZM163.5,39a6.05,6.05,0,0,1-1.19,1.85,1.82,1.82,0,0,1-1.92.5.58.58,0,0,1-.27-.19.9.9,0,0,1-.13-.45,4.86,4.86,0,0,1,.24-1.82,1.54,1.54,0,0,1,.47-.76,2.58,2.58,0,0,1,1.74-.19,1.82,1.82,0,0,1,.29.1,1.05,1.05,0,0,1,.71.33.48.48,0,0,1,.15.31A.62.62,0,0,1,163.5,39Z"/><path d="M237.65,44.33c.1,5-1.86,7.9-6.2,9.14-5,1.41-9-.18-11.58-4.64s-2.36-8.73-1.06-13.46c.5-1.83,1.95-3.28,3.69-4.64.34-.27.82-.44,1.21-.7,3.73-2.45,4.74-2.33,7.92,1C235.51,35.14,237.56,39.66,237.65,44.33Zm-17.83-1.92A11.12,11.12,0,0,0,222.6,49c2.41,2.74,4.75,3.4,8,2.58,2.67-.67,4.33-2.53,4.83-5.66,1-6-1.91-10.52-6.16-14.29a4.06,4.06,0,0,0-3.22-.41C221.87,32.39,220.11,36.54,219.82,42.41Z"/><path d="M231.49,41.3a8.09,8.09,0,0,1-.22,1.71A5.24,5.24,0,0,1,228,46.19c-2,.47-2.51-1.69-3.05-3.19-.65-1.82-1-3.83.68-5.22.87-.73,2.78-1.46,3.37-1a5,5,0,0,1,2.4,3.33A5.3,5.3,0,0,1,231.49,41.3Zm-4.1,2.21a.74.74,0,0,0,.74.13,2.69,2.69,0,0,0,1.2-2,2.57,2.57,0,0,0-.51-2.38c-.13-.14-1.16-.39-1.49-.06-.69.69-.45,1.42-.5,2.21A2.66,2.66,0,0,0,227.39,43.51Z"/><path d="M194.12,15.73c0,2.61,0,5.21,0,7.81,0,1,.6,1.32,1.5,1.34a30.2,30.2,0,0,1,3.81.11c2.87.4,4.14,1.86,4.1,4.52,0,2-1.95,3.93-4.35,4.2-1,.11-2.09.15-3.14.17-2.17,0-2.73.34-3,2.49a44.46,44.46,0,0,0-.1,5.89c0,3.14.85,6.28-.12,9.41-.34,1.09-.57,2.26-1.94,2.57a3.49,3.49,0,0,1-3.53-1.33,9.88,9.88,0,0,1-2.61-5.77c-.3-3.28-.79-6.54-1.09-9.82a1.84,1.84,0,0,0-1.76-1.88c-1.16-.2-2.33-.4-3.5-.56-2.83-.39-4.21-2.27-5-4.82a6.07,6.07,0,0,1-.25-3.13c.27-1.24.82-1.55,1.79-1.55,2.19,0,4.38.05,6.56.12s2.72-.26,3.07-2.39a42.35,42.35,0,0,0,.6-5.72,46.32,46.32,0,0,1,2.32-12.63c.54-1.74,2.15-2.18,3.66-1.12A6.72,6.72,0,0,1,194,9.55v6.18ZM190.73,7.1l-.68,0c-.41,1.79-1,3.57-1.21,5.39-.48,3.83-.78,7.69-1.18,11.54-.24,2.36-.94,3.15-2.94,3.5-2.36.42-4.7.91-7.06,1.29-.95.16-1.37.61-1,1.46.47,1,1,2,2.39,2.18s2.7.37,4.06.51c1.75.19,3.29,1.3,3.39,2.39.36,4.15.71,8.29,1.16,12.43a5,5,0,0,0,2,3.57c.21-.3.5-.54.52-.79a35.08,35.08,0,0,0,.11-3.55c-.12-3.75-.4-7.49-.4-11.24,0-2.69,1.82-4.23,4.51-4.22.64,0,1.28.1,1.91.06a11.66,11.66,0,0,0,2.29-.28,2.83,2.83,0,0,0,1.82-2.65c-.3-1.27-1.36-1.3-2.4-1.29-1.33,0-2.65.05-4,0-2,0-3.07-1.14-3.06-3.18,0-5.13,0-10.25,0-15.38A9,9,0,0,0,190.73,7.1Z"/><path d="M259,29.32c-2.09-4.63-5-6-10.48-3.23a19.68,19.68,0,0,0-3,2.42,5.77,5.77,0,0,1-.55-.87c-.58-1.41-1.6-2.26-3.08-1.6-1.31.6-3,1-2.71,3.24s0,4.6.07,6.9c.21,5,0,10.18,2.34,14.84.57,1.15,2,2.6,3,2.58s1.64-.7,2.53-1.73a7.4,7.4,0,0,0,1-2.76,56.94,56.94,0,0,1,.49-7.06A25,25,0,0,1,251,35.56c.62-1.18,1.94-.83,2.24.53a16.92,16.92,0,0,1,.31,3.7c0,1.9-.28,3.8-.19,5.71.09,2.37.48,4.73,2.21,6.57,1.53,1.63,3.46,1.57,4.63-.33a12.44,12.44,0,0,0,1.56-4C263.1,41.29,261.64,35.12,259,29.32Zm.27,18.94a4.5,4.5,0,0,1-.82,2c-.56.93-1.35.95-1.75-.06a12.74,12.74,0,0,1-1.06-4c-.14-3,0-6,0-9.07,0-2.45-1.07-3.67-3.52-4.3-1.94-.5-2.87,1-3.8,2.2-1.58,2.14-2,4.64-2.13,7.25s-.44,5.08-.78,7.6c-.07.56-.26,1.61-1.13,1.48-2.33-.36-4.15-24-1.23-22.64,1.19.56,1.16,2.3,1.47,3.37a7.84,7.84,0,0,1,.38,2.45,7.46,7.46,0,0,0,1.5-1.65c1.14-2.52,2.55-4.75,5.24-5.85,2.21-.91,3.73-.75,4.64,1.41a47.42,47.42,0,0,1,3.26,10.62C260.06,42.06,259.51,45.2,259.31,48.26Z"/><path d="M139.41,35.11c-1.4.6-1.79,7.46.22,8.35,1.25.55,2.79-1.87,3.26-2.3,2.37-2.22,4.76-1.34,6.28,1.26,3.34,5.72-2.29,12.65-10.07,12.46a7.41,7.41,0,0,1-6.58-4c-3-4.83-2.6-10-2-15.12A12.83,12.83,0,0,1,134.79,27a7.18,7.18,0,0,1,6.8-1.63,5.42,5.42,0,0,1,4.58,4.34,2.9,2.9,0,0,1,.2,1.63C144.87,35.52,143.83,33.2,139.41,35.11Zm6,8.23c-1.51.08-1.44,1.28-2.32,2.08a3.88,3.88,0,0,1-4.78.59c-2.68-1.51-2.42-3.63-2.42-6.23,0-2.23,1.39-7.29,4.16-8.23,2.16-.78,2.29.85,3.34.12s.57-1.29-.45-2.94a3.24,3.24,0,0,0-4.77-.72c-1.11.95-2.8,1.94-3.41,3.13-2.82,5.54-2.85,11-1,16.69.26.82,1.58,2,2.11,2.73,1.58,2.15,4.23,2.75,7,1.66C146.34,50.81,149.63,43.1,145.36,43.34Z"/></svg>