<svg id="Layer_1" data-name="Layer 1" xmlns="https://www.w3.org/2000/svg" viewBox="0 0 124.06 126.8"><defs><style>.cls-1,.cls-2{fill:none;stroke-miterlimit:10;}.cls-1{stroke:#fff;}.cls-2{stroke:#f84982;}.cls-3{font-size:8px;font-family:Helvetica-Bold, Helvetica;font-weight:700;}</style></defs><circle class="cls-1" cx="38.85" cy="67.01" r="38.35"/><circle class="cls-1" cx="79.76" cy="38.85" r="38.35"/><circle class="cls-2" cx="85.2" cy="87.95" r="38.35"/><circle class="cls-2" cx="38.85" cy="67.01" r="38.35"/><circle class="cls-2" cx="79.76" cy="38.85" r="38.35"/><circle class="cls-2" cx="85.2" cy="87.95" r="38.35"/><text class="cls-3" transform="translate(75.42 25.08)">older <tspan x="-2" y="9.6">adults</tspan></text><text class="cls-3" transform="translate(15.28 59.34)">home <tspan x="-5.11" y="9.6">health &amp; </tspan><tspan x="-7.56" y="19.2">wellbeing</tspan></text><text class="cls-3" transform="translate(80.68 93.7)">voice <tspan x="-9.34" y="9.6">assistants</tspan></text><path d="M67.68,57.67a4.48,4.48,0,0,0-4.48,4.48c0,3.35,4.48,8.31,4.48,8.31s4.48-5,4.48-8.31A4.48,4.48,0,0,0,67.68,57.67Zm0,6.07a1.6,1.6,0,1,1,1.6-1.59A1.6,1.6,0,0,1,67.68,63.74Z"/></svg>